<?xml version="1.0" encoding="utf-8"?>
<!-- Generator: Adobe Illustrator 16.0.0, SVG Export Plug-In . SVG Version: 6.00 Build 0)  -->
<!DOCTYPE svg PUBLIC "-//W3C//DTD SVG 1.1//EN" "http://www.w3.org/Graphics/SVG/1.1/DTD/svg11.dtd">
<svg version="1.1" id="Layer_1" xmlns="http://www.w3.org/2000/svg" xmlns:xlink="http://www.w3.org/1999/xlink" x="0px" y="0px"
	 width="612px" height="792px" viewBox="0 0 612 792" enable-background="new 0 0 612 792" xml:space="preserve">
<g>
	<g>
		<g>
			<path fill="#010101" d="M519.199,152.2v-30.6c0-16.902-13.698-30.601-30.601-30.601H60.2c-16.901,0-30.6,13.698-30.6,30.601
				V167.5H14.3c-8.456,0-15.3,6.845-15.3,15.3c0,8.456,6.844,15.3,15.3,15.3h15.3V228.7H14.3C5.844,228.7-1,235.544-1,244
				s6.844,15.3,15.3,15.3h15.3v30.6H14.3c-8.456,0-15.3,6.845-15.3,15.301c0,8.455,6.844,15.3,15.3,15.3h15.3v30.6H14.3
				c-8.456,0-15.3,6.845-15.3,15.3c0,8.456,6.844,15.301,15.3,15.301h15.3v30.6H14.3c-8.456,0-15.3,6.844-15.3,15.3
				s6.844,15.3,15.3,15.3h15.3v30.6H14.3c-8.456,0-15.3,6.845-15.3,15.301c0,8.455,6.844,15.3,15.3,15.3h15.3v30.6H14.3
				c-8.456,0-15.3,6.845-15.3,15.3c0,8.456,6.844,15.301,15.3,15.301h15.3v30.6H14.3c-8.456,0-15.3,6.844-15.3,15.3
				s6.844,15.3,15.3,15.3h15.3v45.9c0,16.901,13.698,30.6,30.6,30.6h428.399c16.902,0,30.601-13.698,30.601-30.6V376.436
				l-30.601,30.6v265.362H60.2v-45.899h15.3c8.456,0,15.3-6.845,15.3-15.3c0-8.456-6.844-15.3-15.3-15.3H60.2v-30.601h15.3
				c8.456,0,15.3-6.844,15.3-15.3c0-8.455-6.844-15.3-15.3-15.3H60.2v-30.6h15.3c8.456,0,15.3-6.845,15.3-15.3
				c0-8.456-6.844-15.301-15.3-15.301H60.2v-30.6h15.3c8.456,0,15.3-6.845,15.3-15.3c0-8.456-6.844-15.3-15.3-15.3H60.2v-30.601
				h15.3c8.456,0,15.3-6.844,15.3-15.3c0-8.455-6.844-15.3-15.3-15.3H60.2v-30.6h15.3c8.456,0,15.3-6.845,15.3-15.301
				c0-8.455-6.844-15.3-15.3-15.3H60.2v-30.6h15.3c8.456,0,15.3-6.845,15.3-15.3c0-8.456-6.844-15.3-15.3-15.3H60.2v-30.601h15.3
				c8.456,0,15.3-6.844,15.3-15.3c0-8.455-6.844-15.3-15.3-15.3H60.2v-45.9h428.399v30.601L519.199,152.2L519.199,152.2z"/>
		</g>
	</g>
	<g>
		<g>
			<path fill="#010101" d="M602.033,207.064l-30.601-30.6c-5.967-5.978-13.801-8.966-21.634-8.966
				c-7.834,0-15.667,2.988-21.634,8.966l-6.345,6.334h-63.821c-4.06,0-7.945,1.611-10.822,4.478l-91.8,91.8l21.634,21.634
				l87.322-87.312h26.888L252.766,451.864c-2.326,2.326-4.264,5.009-5.733,7.956l-30.6,61.2c-5.896,11.781-3.58,26.01,5.732,35.322
				c5.875,5.875,13.709,8.966,21.645,8.966c4.642,0,9.322-1.06,13.678-3.233l61.2-30.6c2.938-1.469,5.63-3.406,7.956-5.732
				l275.399-275.399C613.987,238.389,613.987,219.01,602.033,207.064z M243.799,534.699l23.389-46.777l23.389,23.378
				L243.799,534.699z M315.821,493.277l-30.6-30.601L549.799,198.1l30.6,30.601L315.821,493.277z"/>
		</g>
	</g>
	<g>
	</g>
	<g>
	</g>
	<g>
	</g>
	<g>
	</g>
	<g>
	</g>
	<g>
	</g>
	<g>
	</g>
	<g>
	</g>
	<g>
	</g>
	<g>
	</g>
	<g>
	</g>
	<g>
	</g>
	<g>
	</g>
	<g>
	</g>
	<g>
	</g>
</g>
</svg>
