<?xml version="1.0" encoding="utf-8"?>
<!-- Generator: Adobe Illustrator 16.0.0, SVG Export Plug-In . SVG Version: 6.00 Build 0)  -->
<!DOCTYPE svg PUBLIC "-//W3C//DTD SVG 1.1//EN" "http://www.w3.org/Graphics/SVG/1.1/DTD/svg11.dtd">
<svg version="1.1" id="Layer_1" xmlns="http://www.w3.org/2000/svg" xmlns:xlink="http://www.w3.org/1999/xlink" x="0px" y="0px"
	 width="612px" height="792px" viewBox="0 0 612 792" enable-background="new 0 0 612 792" xml:space="preserve">
<g>
	<g>
		<path fill="#010101" d="M482.928,262H130.124c-7.8,0-14.124,6.323-14.124,14.123v240.732c0,7.8,6.324,14.124,14.124,14.124
			h352.804c7.799,0,14.123-6.324,14.123-14.124V276.123C497.051,268.323,490.727,262,482.928,262z M144.247,302.866l95.947,65.465
			l-95.947,110.673V302.866L144.247,302.866z M306.529,379.393L175.88,290.246h261.29L306.529,379.393z M263.69,384.359l34.875,23.8
			c2.407,1.634,5.187,2.454,7.965,2.454c2.781,0,5.559-0.82,7.958-2.454l34.881-23.8L452,502.731H161.068L263.69,384.359z
			 M372.863,368.331l95.94-65.465v176.123L372.863,368.331z"/>
	</g>
	<g>
	</g>
	<g>
	</g>
	<g>
	</g>
	<g>
	</g>
	<g>
	</g>
	<g>
	</g>
	<g>
	</g>
	<g>
	</g>
	<g>
	</g>
	<g>
	</g>
	<g>
	</g>
	<g>
	</g>
	<g>
	</g>
	<g>
	</g>
	<g>
	</g>
</g>
</svg>
