<?xml version="1.0" encoding="utf-8"?>
<!-- Generator: Adobe Illustrator 16.0.0, SVG Export Plug-In . SVG Version: 6.00 Build 0)  -->
<!DOCTYPE svg PUBLIC "-//W3C//DTD SVG 1.1//EN" "http://www.w3.org/Graphics/SVG/1.1/DTD/svg11.dtd">
<svg version="1.1" id="Layer_2" xmlns="http://www.w3.org/2000/svg" xmlns:xlink="http://www.w3.org/1999/xlink" x="0px" y="0px"
	 width="244.09px" height="175.542px" viewBox="0 0 244.09 175.542" enable-background="new 0 0 244.09 175.542"
	 xml:space="preserve">
<path fill="#010101" d="M214,21.942c-30.1-22.57-58.73-21.94-58.73-21.94l-2.92,3.34c34.971,10.7,51.511,26.05,52.021,26.53
	c-21.73-11.9-43.04-17.75-62.89-20.05c-15.04-1.67-29.461-1.26-42.21,0.42c-1.26,0-2.3,0.2-3.56,0.41
	c-7.31,0.63-25.07,3.35-47.43,13.17c-7.5,3.44-12.04,5.9-12.32,6.05c0.54-0.5,17.92-16.67,54.95-27.37l-2.09-2.5
	c0,0-28.63-0.63-58.72,21.94c0,0-30.1,54.541-30.1,121.831c0,0,17.56,30.31,63.74,31.77c0,0,7.73-9.41,14-17.35
	c-26.02-7.78-36.17-24.011-36.55-24.641c0.25,0.17,2.31,1.58,5.83,3.54c0.21,0.2,0.42,0.41,0.84,0.62c0.63,0.42,1.25,0.63,1.88,1.05
	c5.22,2.92,10.45,5.221,15.26,7.101c8.56,3.35,18.8,6.689,30.71,8.99c15.68,2.93,34.07,3.97,54.13,0.21
	c9.82-1.67,19.851-4.601,30.3-8.99c7.32-2.71,15.46-6.69,24.03-12.32c-0.32,0.521-10.87,17.25-37.82,24.86
	c6.271,7.939,13.79,16.93,13.79,16.93c46.19-1.46,63.95-31.77,63.95-31.77C244.09,76.482,214,21.942,214,21.942z M83.91,122.532
	c-11.71,0-21.32-10.45-21.32-23.2c0-12.74,9.4-23.189,21.32-23.189c11.91,0,21.52,10.449,21.31,23.189
	C105.22,112.082,95.82,122.532,83.91,122.532z M160.18,122.532c-11.699,0-21.31-10.45-21.31-23.2c0-12.74,9.399-23.189,21.31-23.189
	c11.92,0,21.32,10.449,21.32,23.189C181.5,112.082,172.1,122.532,160.18,122.532z"/>
</svg>
