<?xml version="1.0" encoding="utf-8"?>
<!-- Generator: Adobe Illustrator 16.0.0, SVG Export Plug-In . SVG Version: 6.00 Build 0)  -->
<!DOCTYPE svg PUBLIC "-//W3C//DTD SVG 1.1//EN" "http://www.w3.org/Graphics/SVG/1.1/DTD/svg11.dtd">
<svg version="1.1" xmlns="http://www.w3.org/2000/svg" xmlns:xlink="http://www.w3.org/1999/xlink" x="0px" y="0px"
	 width="381.05px" height="268.98px" viewBox="0 0 381.05 268.98" enable-background="new 0 0 381.05 268.98" xml:space="preserve">
<g id="Layer_1">
	<g>
		<g>
			<path fill="#010101" d="M366.93,0H14.12C6.32,0,0,6.32,0,14.12v240.74c0,7.8,6.32,14.12,14.12,14.12h352.81
				c7.801,0,14.12-6.32,14.12-14.12V14.12C381.05,6.32,374.73,0,366.93,0z M352.8,216.99l-67.729-78.12
				c-2.681,11.01-7.33,20.31-13.471,27.58l64.4,74.28H45.07l54.57-62.94c-4.03-10.5-6.27-22.32-6.27-35.33c0-0.2,0-0.39,0.01-0.59
				L28.25,217V40.87l76.13,51.94c4.07-8.59,9.23-16.57,15.36-23.72L59.88,28.25h261.29L269.7,63.37
				c5.93,7.27,10.55,15.65,13.62,24.9l69.479-47.4V216.99z"/>
		</g>
	</g>
</g>
<g id="Layer_2_copy">
	<g>
		<g id="XMLID_1_">
			<g id="XMLID_2_">
				<g id="XMLID_3_">
					<path id="XMLID_4_" fill="#010101" d="M229.471,208.987c1.131,3.643-0.76,7.522-4.322,8.887
						c-13.327,5.102-25.787,6.884-42.005,6.884c-43.788,0-82.299-31.39-82.299-83.091c0-53.812,39.041-100.501,98.659-100.501
						c46.419,0,79.652,31.917,79.652,76.232c0,38.511-21.63,62.778-50.113,62.778c-12.403,0-21.368-6.329-22.685-20.312h-0.529
						c-8.174,13.452-20.044,20.312-34.026,20.312c-17.149,0-29.54-12.661-29.54-34.291c0-32.181,23.731-61.459,61.717-61.459
						c6.955,0,14.477,1.041,20.808,2.67c6.111,1.573,9.995,7.53,8.985,13.761l-6.315,38.962
						c-2.633,15.563-0.786,22.683,6.594,22.948c11.342,0.265,25.59-14.242,25.59-44.578c0-34.293-22.158-60.934-63.045-60.934
						c-40.357,0-75.706,31.653-75.706,82.036c0,44.05,28.222,69.11,67.525,69.11c10.231,0,20.917-1.678,30.089-4.917
						c2.182-0.771,4.583-0.619,6.651,0.419C227.225,204.942,228.785,206.776,229.471,208.987L229.471,208.987z M207.599,108.659
						c0.198-1.349-0.704-2.616-2.046-2.864c-1.643-0.305-3.548-0.531-5.796-0.531c-17.405,0-31.117,17.146-31.117,37.458
						c0,10.025,4.479,16.354,13.182,16.354c9.762,0,20.05-12.396,22.427-27.697L207.599,108.659z"/>
				</g>
			</g>
		</g>
	</g>
</g>
</svg>
