<?xml version="1.0" encoding="utf-8"?>
<!-- Generator: Adobe Illustrator 16.0.0, SVG Export Plug-In . SVG Version: 6.00 Build 0)  -->
<!DOCTYPE svg PUBLIC "-//W3C//DTD SVG 1.1//EN" "http://www.w3.org/Graphics/SVG/1.1/DTD/svg11.dtd">
<svg version="1.1" id="Layer_1" xmlns="http://www.w3.org/2000/svg" xmlns:xlink="http://www.w3.org/1999/xlink" x="0px" y="0px"
	 width="93.465px" height="120.208px" viewBox="0 0 93.465 120.208" enable-background="new 0 0 93.465 120.208"
	 xml:space="preserve">
<g>
	<path id="FF" fill="none" stroke="#010101" d="M0.608,0.5l75.173,0.044L63.678,19.744H44.641l-5.462,26.837l13.226,0.044
		l-11.38,19.281l-5.983,0.005l-11.35,53.794l-21.3-0.181l11.34-53.82l-7.075-0.019L4.611,46.504l13.145,0.12l5.587-26.705
		L4.431,19.924L0.608,0.5z"/>
	<path id="R" fill="none" stroke="#010101" d="M80.15,2.944l-11.699,18.36c0,0,14.799,15-9.562,25.439
		C51.81,59.104,47.885,65.87,47.885,65.87L53.91,119.5h24.794L66.106,65.908C97.789,46.625,100.064,17.229,80.15,2.944z"/>
</g>
</svg>
