<?xml version="1.0" encoding="utf-8"?>
<!-- Generator: Adobe Illustrator 16.0.0, SVG Export Plug-In . SVG Version: 6.00 Build 0)  -->
<!DOCTYPE svg PUBLIC "-//W3C//DTD SVG 1.1//EN" "http://www.w3.org/Graphics/SVG/1.1/DTD/svg11.dtd">
<svg version="1.1" id="Layer_1" xmlns="http://www.w3.org/2000/svg" xmlns:xlink="http://www.w3.org/1999/xlink" x="0px" y="0px"
	 width="612px" height="792px" viewBox="0 0 612 792" enable-background="new 0 0 612 792" xml:space="preserve">
<g>
	<g>
		<g>
			<path fill="#010101" d="M572.388,224.127H407.012v-40.32c0-10.939-8.868-19.807-19.807-19.807H224.797
				c-10.939,0-19.806,8.868-19.806,19.807v40.318H39.614C17.771,224.127,0,241.897,0,263.74v77.715
				c0,14.146,7.578,27.224,19.806,34.289v233.887c0,10.939,8.868,19.807,19.807,19.807h532.775c10.939,0,19.806-8.868,19.806-19.807
				v-233.89c12.229-7.063,19.807-20.14,19.807-34.288v-77.715C612.001,241.897,594.23,224.127,572.388,224.127z M244.604,203.612
				h122.794v20.513H244.604V203.612z M552.581,589.822H59.42V397.884l183.634,102.534l7.491,4.182v15.904
				c0,10.939,8.868,19.807,19.806,19.807h71.301h0.001c10.939,0,19.807-8.868,19.807-19.807v-15.902l191.122-106.718
				L552.581,589.822L552.581,589.822z M290.157,500.698c0-17.735,0-4.961,0-44.206h31.687v44.206H290.157z M572.388,341.454
				c-9.612,5.367-201.981,112.781-210.931,117.776v-10.79c0-17.403-14.158-31.563-31.563-31.563h-47.788
				c-17.404,0-31.563,14.159-31.563,31.563v10.789c-5.913-3.303-208.341-116.33-210.93-117.776V263.74h532.774V341.454z"/>
		</g>
	</g>
	<g>
	</g>
	<g>
	</g>
	<g>
	</g>
	<g>
	</g>
	<g>
	</g>
	<g>
	</g>
	<g>
	</g>
	<g>
	</g>
	<g>
	</g>
	<g>
	</g>
	<g>
	</g>
	<g>
	</g>
	<g>
	</g>
	<g>
	</g>
	<g>
	</g>
</g>
</svg>
